<svg id="eXpCw4F3jg21" xmlns="http://www.w3.org/2000/svg" xmlns:xlink="http://www.w3.org/1999/xlink" viewBox="0 0 64 64" shape-rendering="geometricPrecision" text-rendering="geometricPrecision" project-id="294f5208d4fb4b07a5adc4ac819b1e3f" export-id="7eb5e0f2d5054583b96b4a3811f0130c" cached="false"><defs><linearGradient id="eXpCw4F3jg22-fill" x1="0" y1="0" x2="1" y2="1" spreadMethod="pad" gradientUnits="objectBoundingBox" gradientTransform="translate(0 0)"><stop id="eXpCw4F3jg22-fill-0" offset="0%" stop-color="#161620"/><stop id="eXpCw4F3jg22-fill-1" offset="50%" stop-color="#11111a"/><stop id="eXpCw4F3jg22-fill-2" offset="100%" stop-color="#09090e"/></linearGradient><filter id="eXpCw4F3jg24-filter" x="-150%" y="-150%" width="400%" height="400%"><feGaussianBlur id="eXpCw4F3jg24-filter-drop-shadow-0-blur" in="SourceAlpha" stdDeviation="4,4"/><feOffset id="eXpCw4F3jg24-filter-drop-shadow-0-offset" dx="0" dy="0" result="tmp"/><feFlood id="eXpCw4F3jg24-filter-drop-shadow-0-flood" flood-color="#465a8c"/><feComposite id="eXpCw4F3jg24-filter-drop-shadow-0-composite" operator="in" in2="tmp"/><feMerge id="eXpCw4F3jg24-filter-drop-shadow-0-merge" result="result"><feMergeNode id="eXpCw4F3jg24-filter-drop-shadow-0-merge-node-1"/><feMergeNode id="eXpCw4F3jg24-filter-drop-shadow-0-merge-node-2" in="SourceGraphic"/></feMerge></filter><filter id="eXpCw4F3jg26-filter" x="-150%" y="-150%" width="400%" height="400%"><feGaussianBlur id="eXpCw4F3jg26-filter-drop-shadow-0-blur" in="SourceAlpha" stdDeviation="6,4"/><feOffset id="eXpCw4F3jg26-filter-drop-shadow-0-offset" dx="0" dy="0" result="tmp"/><feFlood id="eXpCw4F3jg26-filter-drop-shadow-0-flood" flood-color="#465a8c"/><feComposite id="eXpCw4F3jg26-filter-drop-shadow-0-composite" operator="in" in2="tmp"/><feMerge id="eXpCw4F3jg26-filter-drop-shadow-0-merge" result="result"><feMergeNode id="eXpCw4F3jg26-filter-drop-shadow-0-merge-node-1"/><feMergeNode id="eXpCw4F3jg26-filter-drop-shadow-0-merge-node-2" in="SourceGraphic"/></feMerge></filter></defs><rect width="60" height="60" rx="8" ry="8" transform="translate(2 2)" fill="url(#eXpCw4F3jg22-fill)" stroke-width="0"/><g transform="matrix(1.171344 0 0 1.171344 -6.788752 -5.483008)"><path d="M32,13.99999c9.94113,0,18,8.05887,18,18s-8.05887,18-18,18c-3.31161,0-6.41435-.8943-9.07988-2.45456c1.21875.29707,2.49218.45456,3.8024.45456c8.83656,0,16-7.16344,16-16s-7.16344-16-16-16c-1.31021,0-2.58364.15748-3.80239.45456C25.58566,14.89429,28.68839,13.99999,32,13.99999Z" transform="translate(-0.930439 0.00001)" filter="url(#eXpCw4F3jg24-filter)" fill="#f5f5f7" stroke-width="0"/><g transform="matrix(0.849465 0 0 0.849465 -17.834065 -9.131139)"><path d="M62.85,48L46.34,36c-.748053-.549323-1.742281-.628807-2.568106-.205307s-1.34146,1.277273-1.331894,2.205307v24.07c-.009566.928034.506069,1.781807,1.331894,2.205307s1.820053.344016,2.568106-.205307L62.85,52c.649062-.459243,1.034903-1.204899,1.034903-2s-.385841-1.540757-1.034903-2Z" transform="translate(4.441106 -1.751578)" filter="url(#eXpCw4F3jg26-filter)" fill="#f5f5f7"/></g></g></svg>
